<mxfile host="Electron" modified="2023-09-10T19:49:43.569Z" agent="Mozilla/5.0 (Windows NT 10.0; Win64; x64) AppleWebKit/537.36 (KHTML, like Gecko) draw.io/21.6.8 Chrome/114.0.5735.289 Electron/25.5.0 Safari/537.36" etag="eNRqZl4ymllRr1uxNTCO" version="21.6.8" type="device">
  <diagram name="PÃ¡gina-1" id="g1YZ-YrXjUiv6NULl63z">
    <mxGraphModel dx="1418" dy="827" grid="1" gridSize="10" guides="1" tooltips="1" connect="1" arrows="1" fold="1" page="1" pageScale="1" pageWidth="827" pageHeight="1169" math="0" shadow="0">
      <root>
        <mxCell id="0" />
        <mxCell id="1" parent="0" />
        <mxCell id="VEujMByCTWzzciiKIYF3-5" style="edgeStyle=orthogonalEdgeStyle;rounded=0;orthogonalLoop=1;jettySize=auto;html=1;entryX=0;entryY=0.5;entryDx=0;entryDy=0;" parent="1" source="VEujMByCTWzzciiKIYF3-1" target="VEujMByCTWzzciiKIYF3-3" edge="1">
          <mxGeometry relative="1" as="geometry" />
        </mxCell>
        <mxCell id="VEujMByCTWzzciiKIYF3-1" value="Paciente&lt;br&gt;" style="shape=umlActor;verticalLabelPosition=bottom;verticalAlign=top;html=1;" parent="1" vertex="1">
          <mxGeometry x="70" y="680" width="30" height="60" as="geometry" />
        </mxCell>
        <mxCell id="VEujMByCTWzzciiKIYF3-2" value="Sistema" style="verticalAlign=top;align=left;spacingTop=8;spacingLeft=2;spacingRight=12;shape=cube;size=10;direction=south;fontStyle=4;html=1;whiteSpace=wrap;" parent="1" vertex="1">
          <mxGeometry x="200" y="600" width="440" height="370" as="geometry" />
        </mxCell>
        <mxCell id="VEujMByCTWzzciiKIYF3-7" style="edgeStyle=orthogonalEdgeStyle;rounded=0;orthogonalLoop=1;jettySize=auto;html=1;entryX=0;entryY=0.5;entryDx=0;entryDy=0;" parent="1" source="VEujMByCTWzzciiKIYF3-3" target="VEujMByCTWzzciiKIYF3-6" edge="1">
          <mxGeometry relative="1" as="geometry" />
        </mxCell>
        <mxCell id="VEujMByCTWzzciiKIYF3-3" value="Visualizar tips del tratamiento" style="ellipse;whiteSpace=wrap;html=1;" parent="1" vertex="1">
          <mxGeometry x="230" y="675" width="140" height="70" as="geometry" />
        </mxCell>
        <mxCell id="VEujMByCTWzzciiKIYF3-6" value="Sugerencias de tratamiento" style="ellipse;whiteSpace=wrap;html=1;" parent="1" vertex="1">
          <mxGeometry x="430" y="675" width="140" height="70" as="geometry" />
        </mxCell>
        <mxCell id="VEujMByCTWzzciiKIYF3-8" value="" style="endArrow=block;dashed=1;endFill=0;endSize=12;html=1;rounded=0;exitX=0.5;exitY=1;exitDx=0;exitDy=0;entryX=0.5;entryY=0;entryDx=0;entryDy=0;" parent="1" source="VEujMByCTWzzciiKIYF3-6" target="VEujMByCTWzzciiKIYF3-9" edge="1">
          <mxGeometry width="160" relative="1" as="geometry">
            <mxPoint x="480" y="860" as="sourcePoint" />
            <mxPoint x="640" y="860" as="targetPoint" />
          </mxGeometry>
        </mxCell>
        <mxCell id="VEujMByCTWzzciiKIYF3-10" value="Include" style="edgeLabel;html=1;align=center;verticalAlign=middle;resizable=0;points=[];" parent="VEujMByCTWzzciiKIYF3-8" vertex="1" connectable="0">
          <mxGeometry x="0.1818" y="-1" relative="1" as="geometry">
            <mxPoint as="offset" />
          </mxGeometry>
        </mxCell>
        <mxCell id="VEujMByCTWzzciiKIYF3-9" value="Base de datos de tips de tratamientos" style="ellipse;whiteSpace=wrap;html=1;" parent="1" vertex="1">
          <mxGeometry x="420" y="850" width="140" height="70" as="geometry" />
        </mxCell>
      </root>
    </mxGraphModel>
  </diagram>
</mxfile>
